<svg id="visual" viewBox="0 0 960 540" width="960" height="540" xmlns="http://www.w3.org/2000/svg" xmlns:xlink="http://www.w3.org/1999/xlink" version="1.1"><rect x="0" y="0" width="960" height="540" fill="#001220"></rect><defs><linearGradient id="grad1_0" x1="43.8%" y1="0%" x2="100%" y2="100%"><stop offset="14.444444444444446%" stop-color="#001220" stop-opacity="1"></stop><stop offset="85.55555555555554%" stop-color="#001220" stop-opacity="1"></stop></linearGradient></defs><defs><linearGradient id="grad2_0" x1="0%" y1="0%" x2="56.3%" y2="100%"><stop offset="14.444444444444446%" stop-color="#001220" stop-opacity="1"></stop><stop offset="85.55555555555554%" stop-color="#001220" stop-opacity="1"></stop></linearGradient></defs><g transform="translate(960, 0)"><path d="M0 486C-45.9 437.3 -91.8 388.6 -154.2 372.3C-216.7 356.1 -295.8 372.3 -343.7 343.7C-391.6 315 -408.3 241.5 -426.8 176.8C-445.4 112.1 -465.7 56 -486 0L0 0Z" fill="#FBAE3C"></path></g><g transform="translate(0, 540)"><path d="M0 -486C42.3 -432.9 84.5 -379.8 151.5 -365.9C218.6 -351.9 310.3 -377 343.7 -343.7C377 -310.3 351.9 -218.6 365.9 -151.5C379.8 -84.5 432.9 -42.3 486 0L0 0Z" fill="#FBAE3C"></path></g></svg>